<svg xmlns="http://www.w3.org/2000/svg" width="255" height="55"><g data-name="長方形 1117" fill="none" stroke="#1b2f5b" stroke-width="2"><path d="M0 0h255v55H0z" stroke="none"/><path d="M1 1h253v53H1z"/></g><g data-name="グループ 164" fill="#1b2f5b"><path data-name="Icon awesome-phone" d="M48.092 16.154l-5.078-1.125a1.193 1.193 0 00-1.343.651l-2.344 5.25a1.093 1.093 0 00.337 1.312l2.959 2.325a17.75 17.75 0 01-8.652 8.307l-2.422-2.841a1.2 1.2 0 00-1.367-.323l-5.468 2.25a1.128 1.128 0 00-.684 1.294l1.171 4.874a1.162 1.162 0 001.143.873c12.505 0 22.657-9.727 22.657-21.75a1.134 1.134 0 00-.909-1.097z"/><text data-name="0980-76-3300" transform="translate(59 38)" font-size="24" font-family="NotoSansCJKjp-Bold, Noto Sans CJK JP" font-weight="700" letter-spacing=".05em"><tspan x="0" y="0">0980-76-3300</tspan></text></g></svg>