<svg xmlns="http://www.w3.org/2000/svg" width="25" height="24" viewBox="0 0 25 24">
  <path id="Icon_awesome-phone" data-name="Icon awesome-phone" d="M24.091,1.153,19.013.028A1.193,1.193,0,0,0,17.67.679l-2.344,5.25a1.093,1.093,0,0,0,.337,1.312l2.959,2.325A17.75,17.75,0,0,1,9.97,17.873L7.548,15.032a1.2,1.2,0,0,0-1.367-.323L.713,16.959a1.128,1.128,0,0,0-.684,1.294L1.2,23.127A1.162,1.162,0,0,0,2.343,24C14.848,24,25,14.273,25,2.25A1.134,1.134,0,0,0,24.091,1.153Z" transform="translate(0.001 0.001)" fill="#1b2f5b"/>
</svg>
