<svg xmlns="http://www.w3.org/2000/svg" width="255" height="55" viewBox="0 0 255 55">
  <g id="tel" transform="translate(-1628 -23)">
    <g id="長方形_1117" data-name="長方形 1117" transform="translate(1628 23)" fill="none" stroke="#1b2f5b" stroke-width="2">
      <rect width="255" height="55" stroke="none"/>
      <rect x="1" y="1" width="253" height="53" fill="none"/>
    </g>
    <g id="グループ_164" data-name="グループ 164" transform="translate(57)">
      <path id="Icon_awesome-phone" data-name="Icon awesome-phone" d="M24.091,1.153,19.013.028A1.193,1.193,0,0,0,17.67.679l-2.344,5.25a1.093,1.093,0,0,0,.337,1.312l2.959,2.325A17.75,17.75,0,0,1,9.97,17.873L7.548,15.032a1.2,1.2,0,0,0-1.367-.323L.713,16.959a1.128,1.128,0,0,0-.684,1.294L1.2,23.127A1.162,1.162,0,0,0,2.343,24C14.848,24,25,14.273,25,2.25A1.134,1.134,0,0,0,24.091,1.153Z" transform="translate(1595.001 38.001)" fill="#1b2f5b"/>
      <text id="_0980-76-3300" data-name="0980-76-3300" transform="translate(1630 61)" fill="#1b2f5b" font-size="24" font-family="NotoSansCJKjp-Bold, Noto Sans CJK JP" font-weight="700" letter-spacing="0.05em"><tspan x="0" y="0">0980-76-3300</tspan></text>
    </g>
  </g>
</svg>
