<svg xmlns="http://www.w3.org/2000/svg" width="33.602" height="32.258" viewBox="0 0 33.602 32.258">
  <path id="Icon_awesome-phone" data-name="Icon awesome-phone" d="M32.38,1.55,25.555.038a1.6,1.6,0,0,0-1.8.876L20.6,7.97a1.469,1.469,0,0,0,.453,1.764l3.977,3.125A23.857,23.857,0,0,1,13.4,24.023L10.146,20.2a1.616,1.616,0,0,0-1.838-.435L.958,22.794a1.516,1.516,0,0,0-.919,1.739l1.575,6.552A1.562,1.562,0,0,0,3.15,32.257C19.957,32.257,33.6,19.184,33.6,3.024A1.525,1.525,0,0,0,32.38,1.55Z" transform="translate(0.001 0.001)" fill="#1b2f5b"/>
</svg>
